<?xml version="1.0" encoding="UTF-8"?>
<svg id="Calque_1" data-name="Calque 1" xmlns="http://www.w3.org/2000/svg" viewBox="0 0 600 600">
  <defs>
    <style>
      .cls-1 {
        fill: #d6d6d6;
      }
    </style>
  </defs>
  <path class="cls-1" d="M398.478,104.188l.007-.013c11.664-21.433,39.685-27.625,59.165-12.929,19.658,14.831,37.305,32.563,52.406,52.874,13.239,17.807,24.014,36.915,32.225,56.917,9.476,23.085-4.504,49.098-28.929,54.208h0c-18.851,3.943-37.921-6.057-45.197-23.89-5.614-13.759-13.03-27.036-22.298-39.502-10.514-14.141-22.715-26.302-36.119-36.411-15.913-12.001-20.786-33.747-11.259-51.254Z"/>
  <path class="cls-1" d="M118.169,179.857l-.012-.008c-19.91-14.107-22.759-42.663-5.871-60.276,17.043-17.774,36.73-33.21,58.678-45.814,19.242-11.05,39.486-19.5,60.316-25.298,24.04-6.692,48.226,10.255,50.423,35.112h0c1.696,19.185-10.481,36.944-29.046,42.069-14.325,3.955-28.383,9.755-41.853,17.491-15.281,8.776-28.794,19.459-40.412,31.579-13.792,14.389-35.961,16.667-52.223,5.144Z"/>
</svg>