<?xml version="1.0" encoding="UTF-8"?>
<svg id="Calque_2" data-name="Calque 2" xmlns="http://www.w3.org/2000/svg" viewBox="0 0 600 600">
  <defs>
    <style>
      .cls-1 {
        fill: #d6d6d6;
      }

      .cls-2 {
        fill: #202020;
      }
    </style>
  </defs>
  <rect class="cls-2" width="600" height="600"/>
  <g>
    <g>
      <path class="cls-1" d="M335.793,238.615l-70.891,70.891,.027,1.235c.073,3.175,.092,6.361,.111,9.44,.019,3.102,.038,6.311,.111,9.536l.065,2.818h2.822c3.098,0,6.319,.058,9.436,.111,3.14,.058,6.388,.115,9.54,.115h1.196l12.461-12.465,58.403-58.403-23.281-23.278Zm2.462,35.938l-52.433,52.433c-2.73-.012-5.529-.061-8.247-.107-2.205-.042-4.463-.081-6.706-.1-.031-2.235-.046-4.463-.057-6.633-.015-2.707-.035-5.494-.088-8.301l52.414-52.414,15.118,15.118v.004Zm4.08-4.083l-15.118-15.118,8.577-8.577,15.118,15.118-8.577,8.577Z"/>
      <polygon class="cls-1" points="338.255 274.553 296.592 316.216 296.592 316.212 338.255 274.553"/>
    </g>
    <polygon class="cls-1" points="331.151 361.385 240.925 361.385 240.925 262.963 285.503 262.963 285.503 268.734 246.696 268.734 246.696 355.615 325.381 355.615 325.381 316.451 331.151 316.451 331.151 361.385"/>
  </g>
</svg>