<?xml version="1.0" encoding="UTF-8"?>
<svg id="Calque_2" data-name="Calque 2" xmlns="http://www.w3.org/2000/svg" viewBox="0 0 600 600">
  <defs>
    <style>
      .cls-1 {
        fill: #d6d6d6;
      }
    </style>
  </defs>
  <g>
    <path class="cls-1" d="M345.237,224.064l-79.612,79.611,.03,1.386c.082,3.565,.103,7.143,.125,10.601,.022,3.483,.043,7.087,.125,10.709l.073,3.165h3.169c3.479,0,7.096,.065,10.597,.125,3.527,.065,7.174,.129,10.713,.129h1.343l13.994-13.998,65.587-65.587-26.145-26.141Zm2.764,40.359l-58.883,58.883c-3.066-.013-6.209-.069-9.262-.121-2.476-.047-5.012-.09-7.531-.112-.034-2.51-.052-5.012-.065-7.449-.017-3.04-.039-6.17-.099-9.322l58.861-58.861,16.978,16.978v.004Zm4.581-4.586l-16.978-16.978,9.632-9.632,16.978,16.978-9.632,9.632Z"/>
    <polygon class="cls-1" points="348.001 264.423 301.214 311.211 301.214 311.206 348.001 264.423"/>
  </g>
  <polygon class="cls-1" points="340.024 361.936 238.699 361.936 238.699 251.407 288.761 251.407 288.761 257.887 245.179 257.887 245.179 355.456 333.544 355.456 333.544 311.474 340.024 311.474 340.024 361.936"/>
</svg>